<svg width="513" height="512" viewBox="0 0 513 512" fill="none" xmlns="http://www.w3.org/2000/svg">
<g clip-path="url(#clip0_943_7740)">
<path d="M176.779 107.331C175.684 109.95 176.719 114.601 176.719 114.601L180.899 115.146C180.899 116.802 180.434 118.559 179.505 120.417H164.783L164.238 117.085C166.5 116.156 168.196 115.57 169.327 115.328C169.327 115.207 169.146 104.524 168.782 83.2789L163.754 81.7037L164.238 78.0081H179.929C180.576 79.0986 180.959 80.6939 181.081 82.7942C179.021 83.1173 177.668 83.3193 177.021 83.4L176.84 97.092L188.775 83.4L184.958 82.7942C184.958 81.5825 185.321 79.9871 186.048 78.0081H201.8C202.043 79.4621 202.204 80.6939 202.285 81.7037C200.144 82.5115 198.468 83.0365 197.257 83.2789C197.257 83.2789 186.623 90.6093 186.17 97.6979C185.65 105.812 198.408 114.54 198.408 114.54L203.8 115.085C203.8 116.782 203.335 118.559 202.406 120.417H193.743L181.262 102.484C181.262 102.484 177.774 104.952 176.779 107.331Z" fill="#FE4C4C"/>
<path d="M213.828 99.0913C214.595 99.0913 215.08 99.1115 215.282 99.1519C215.282 101.131 214.939 102.969 214.252 104.665C214.09 113.389 213.989 119.932 213.949 124.294L218.675 124.84C218.675 126.495 218.21 128.252 217.281 130.11H202.196L201.65 126.778C204.155 125.849 205.972 125.243 207.103 124.961L206.437 105.331C204.054 105.089 202.297 104.786 201.166 104.423C201.166 103.413 201.307 101.959 201.59 100.061C203.973 99.4144 208.052 99.0913 213.828 99.0913ZM213.828 87.6409C214.191 89.4585 214.373 90.8519 214.373 91.8212C214.373 92.7502 214.292 93.8003 214.131 94.9716C212.515 95.3351 211.142 95.5168 210.011 95.5168C208.921 95.5168 207.588 95.4563 206.013 95.3351C205.649 93.5176 205.467 92.1443 205.467 91.2154C205.467 90.246 205.548 89.1757 205.71 88.0044C207.325 87.6409 208.678 87.4592 209.769 87.4592C210.9 87.4592 212.253 87.5198 213.828 87.6409Z" fill="#FE4C4C"/>
<path d="M246.165 90.4278C246.932 90.4278 247.417 90.448 247.619 90.4884C247.619 92.5886 247.356 94.4263 246.831 96.0015C246.67 100.364 246.468 106.584 246.225 114.661C246.023 122.699 245.882 128.01 245.801 130.595C248.184 130.918 249.961 131.261 251.133 131.625V134.533C248.588 135.623 245.095 136.169 240.652 136.169C240.409 135.724 240.086 134.634 239.682 132.897C235.967 134.917 233.281 136.007 231.625 136.169C227.505 136.169 224.415 134.674 222.355 131.686C220.336 128.697 219.326 124.86 219.326 120.175C219.326 115.449 220.356 111.491 222.416 108.3C224.476 105.069 227.525 103.453 231.564 103.453C233.786 103.453 236.128 104.14 238.592 105.513L238.289 96.6679C236.391 96.466 234.795 96.1631 233.503 95.7592C233.503 94.7495 233.644 93.2954 233.927 91.3971C236.31 90.7509 240.389 90.4278 246.165 90.4278ZM232.533 109.391C229.06 109.391 227.323 112.743 227.323 119.448C227.323 123.285 228.01 126.172 229.383 128.111C230.15 129.242 231.14 129.807 232.352 129.807C234.412 129.807 236.734 129.101 239.319 127.687L238.774 112.056C236.471 110.279 234.391 109.391 232.533 109.391Z" fill="#FE4C4C"/>
<path d="M263.795 78.0081L265.249 78.0686C265.249 80.1689 264.986 82.0066 264.461 83.5818C264.381 88.1862 264.34 91.6394 264.34 93.9416C265.633 93.3762 267.107 92.8309 268.763 92.3059C270.419 91.7808 271.449 91.5183 271.853 91.5183C275.972 91.5183 278.921 92.4472 280.698 94.3051C282.515 96.1631 283.424 99.0913 283.424 103.09C283.424 103.494 283.222 108.199 282.818 117.206L287.544 117.812C287.544 119.549 287.079 121.285 286.15 123.022H271.065L270.52 119.69C273.226 118.599 274.963 118.014 275.73 117.933C275.649 113.571 275.548 109.714 275.427 106.361C275.306 102.969 274.983 100.727 274.458 99.6365C273.933 98.546 273.085 98.0008 271.913 98.0008C270.782 98.0008 269.47 98.1421 267.975 98.4248C266.521 98.6672 265.39 98.9701 264.583 99.3336L263.916 117.206L268.642 117.751C268.642 119.407 268.177 121.164 267.248 123.022H252.163L251.618 119.69C254.122 118.761 255.939 118.155 257.07 117.872L255.919 84.2482C254.021 84.0463 252.425 83.7433 251.133 83.3394C251.133 82.3297 251.274 80.8757 251.557 78.9774C253.94 78.3312 258.019 78.0081 263.795 78.0081Z" fill="#1D935A"/>
<path d="M312.985 83.2991C313.752 83.2991 314.237 83.3193 314.439 83.3596C314.439 85.4195 314.095 87.1966 313.409 88.691C313.166 97.5767 312.964 104.14 312.803 108.381C314.62 108.542 316.216 108.845 317.589 109.29L317.468 113.53C315.004 114.298 312.884 114.682 311.106 114.682C309.329 114.682 308.118 114.641 307.471 114.56C306.987 113.591 306.583 112.622 306.26 111.652C302.907 113.914 300.484 115.045 298.99 115.045C291.76 115.045 288.145 111.39 288.145 104.079C288.145 102.1 288.307 97.2334 288.63 89.4786C286.489 89.4786 284.53 89.1959 282.753 88.6304C282.753 87.6207 282.894 86.1667 283.177 84.2684C285.56 83.6222 289.639 83.2991 295.415 83.2991C296.183 83.2991 296.667 83.3193 296.869 83.3596C296.869 85.3387 296.526 87.1764 295.839 88.8728V101.111C295.839 103.696 296.102 105.594 296.627 106.806C297.192 107.977 298.364 108.563 300.141 108.563C301.958 108.563 303.816 107.937 305.714 106.684L305.351 89.4786C303.574 89.3978 301.898 89.1151 300.322 88.6304C300.322 87.6207 300.464 86.1667 300.747 84.2684C303.13 83.6222 307.209 83.2991 312.985 83.2991Z" fill="#1D935A"/>
<path d="M329.303 85.4599C330.272 85.4599 330.898 85.4801 331.181 85.5205C331.181 87.6207 330.918 89.4584 330.393 91.0336L330.212 101.212C333.968 99.7173 336.553 98.9701 337.966 98.9701C341.965 98.9701 344.913 100.465 346.812 103.453C348.75 106.402 349.72 110.239 349.72 114.964C349.72 119.69 348.649 123.587 346.509 126.657C344.368 129.686 341.258 131.201 337.179 131.201C334.513 131.201 331.706 130.191 328.758 128.172C328.596 129.101 328.354 129.949 328.031 130.716C327.304 130.797 326.576 130.837 325.849 130.837C325.122 130.837 324.214 130.716 323.123 130.474L321.851 91.7C319.953 91.4981 318.357 91.1952 317.065 90.7913C317.065 89.2969 317.206 87.8429 317.489 86.4292C319.831 85.783 323.769 85.4599 329.303 85.4599ZM336.936 105.331C334.311 105.331 332.049 105.796 330.151 106.725C330.07 113.51 329.989 118.64 329.909 122.113C330.878 122.921 331.989 123.648 333.241 124.294C334.493 124.94 335.563 125.264 336.452 125.264C339.966 125.264 341.723 122.032 341.723 115.57C341.723 112.824 341.339 110.441 340.571 108.421C339.844 106.361 338.633 105.331 336.936 105.331Z" fill="#1D935A"/>
<path d="M176.498 172.992V174.9H167.734V158.879H169.784V172.992H176.498ZM187.456 174.217C186.749 174.563 186.043 174.798 185.336 174.924C184.629 175.065 183.977 175.136 183.38 175.136C181.7 175.136 180.443 174.657 179.611 173.699C178.794 172.741 178.386 171.429 178.386 169.764V168.35C178.386 166.733 178.794 165.437 179.611 164.463C180.443 163.489 181.613 163.002 183.121 163.002C183.922 163.002 184.653 163.167 185.312 163.497C185.988 163.811 186.522 164.298 186.914 164.958C187.323 165.602 187.527 166.434 187.527 167.455C187.527 168.115 187.433 168.869 187.244 169.717H180.294V169.764C180.294 170.958 180.537 171.861 181.024 172.474C181.527 173.086 182.328 173.392 183.427 173.392C183.93 173.392 184.48 173.33 185.077 173.204C185.689 173.078 186.286 172.882 186.867 172.615L187.456 174.217ZM183.121 164.699C182.21 164.699 181.519 164.997 181.048 165.594C180.592 166.175 180.341 167 180.294 168.068H185.571C185.619 167.785 185.642 167.518 185.642 167.267C185.642 166.387 185.391 165.743 184.888 165.335C184.401 164.911 183.812 164.699 183.121 164.699ZM199.399 175.018C198.677 175.018 198.096 174.853 197.656 174.523C197.232 174.193 196.933 173.785 196.76 173.298C195.991 173.974 195.292 174.453 194.664 174.735C194.035 175.002 193.407 175.136 192.779 175.136C191.758 175.136 191.004 174.806 190.517 174.146C190.03 173.487 189.787 172.678 189.787 171.72C189.787 171.076 189.904 170.502 190.14 170C190.376 169.497 190.776 169.104 191.342 168.822C191.907 168.523 192.669 168.374 193.627 168.374C194.051 168.374 194.514 168.405 195.017 168.468C195.52 168.515 196.03 168.578 196.548 168.657V167.078C196.548 166.199 196.352 165.602 195.959 165.288C195.582 164.958 195.025 164.793 194.287 164.793C193.281 164.793 192.158 165.068 190.917 165.617L190.305 164.015C191.027 163.685 191.719 163.434 192.378 163.261C193.038 163.089 193.705 163.002 194.381 163.002C195.48 163.002 196.321 163.183 196.902 163.544C197.483 163.905 197.884 164.384 198.103 164.981C198.323 165.578 198.433 166.23 198.433 166.937V171.979C198.433 172.34 198.504 172.646 198.645 172.898C198.787 173.133 199.069 173.251 199.493 173.251H199.753V175.018H199.399ZM191.695 171.696C191.695 172.23 191.821 172.662 192.072 172.992C192.323 173.322 192.685 173.487 193.156 173.487C193.564 173.487 194.035 173.369 194.569 173.133C195.103 172.882 195.763 172.387 196.548 171.649V170.165C195.48 169.992 194.538 169.905 193.721 169.905C192.999 169.905 192.48 170.055 192.166 170.353C191.852 170.652 191.695 171.099 191.695 171.696ZM208.615 164.934C207.908 164.934 207.217 165.06 206.542 165.311C205.882 165.562 205.175 166.042 204.421 166.748V174.9H202.49V163.238H204.327V165.123C205.128 164.337 205.859 163.788 206.518 163.473C207.194 163.159 207.893 163.002 208.615 163.002V164.934ZM216.748 164.816C216.308 164.816 215.79 164.926 215.193 165.146C214.612 165.366 213.905 165.814 213.073 166.489V174.9H211.141V163.238H212.978V164.864C213.811 164.157 214.565 163.67 215.24 163.403C215.931 163.136 216.591 163.002 217.219 163.002C218.303 163.002 219.128 163.348 219.693 164.039C220.274 164.714 220.565 165.68 220.565 166.937V174.9H218.633V167.22C218.633 165.617 218.005 164.816 216.748 164.816ZM226.65 160.387H224.483V158.219H226.65V160.387ZM226.532 174.9H224.6V163.238H226.532V174.9ZM236.305 164.816C235.865 164.816 235.347 164.926 234.75 165.146C234.169 165.366 233.462 165.814 232.63 166.489V174.9H230.698V163.238H232.535V164.864C233.368 164.157 234.122 163.67 234.797 163.403C235.488 163.136 236.148 163.002 236.776 163.002C237.86 163.002 238.685 163.348 239.25 164.039C239.831 164.714 240.122 165.68 240.122 166.937V174.9H238.19V167.22C238.19 165.617 237.562 164.816 236.305 164.816ZM253.487 176.361C253.487 177.508 253.016 178.426 252.074 179.118C251.147 179.809 249.867 180.154 248.233 180.154C247.417 180.154 246.561 180.044 245.665 179.824C244.786 179.605 243.953 179.251 243.168 178.764L243.828 177.256C244.613 177.696 245.367 178.002 246.089 178.175C246.828 178.364 247.542 178.458 248.233 178.458C249.302 178.458 250.126 178.285 250.707 177.94C251.288 177.594 251.579 177.131 251.579 176.55C251.579 176.125 251.438 175.796 251.155 175.56C250.872 175.34 250.417 175.23 249.788 175.23H247.079C246.058 175.23 245.32 174.987 244.864 174.5C244.409 174.013 244.181 173.479 244.181 172.898C244.181 172.489 244.275 172.089 244.464 171.696C244.652 171.288 244.919 170.887 245.265 170.494C244.715 170.165 244.275 169.717 243.945 169.152C243.616 168.57 243.451 167.871 243.451 167.055C243.451 166.159 243.639 165.413 244.016 164.816C244.409 164.22 244.927 163.772 245.571 163.473C246.215 163.159 246.938 163.002 247.739 163.002H248.139C248.689 163.002 249.192 163.081 249.647 163.238H253.841V164.958L251.296 164.604C251.626 164.887 251.893 165.24 252.097 165.665C252.302 166.073 252.404 166.576 252.404 167.172C252.404 168.021 252.207 168.735 251.815 169.316C251.438 169.898 250.927 170.345 250.283 170.659C249.639 170.958 248.925 171.107 248.139 171.107H247.739C247.535 171.107 247.338 171.099 247.15 171.083C246.961 171.052 246.773 171.021 246.584 170.989C246.129 171.492 245.901 171.987 245.901 172.474C245.901 173.102 246.341 173.416 247.22 173.416H249.859C250.99 173.416 251.877 173.667 252.521 174.17C253.165 174.673 253.487 175.403 253.487 176.361ZM248.139 169.434C248.752 169.434 249.294 169.238 249.765 168.845C250.236 168.453 250.472 167.856 250.472 167.055C250.472 166.269 250.236 165.68 249.765 165.288C249.294 164.879 248.752 164.675 248.139 164.675H247.739C247.11 164.675 246.561 164.879 246.089 165.288C245.618 165.68 245.383 166.269 245.383 167.055C245.383 167.856 245.618 168.453 246.089 168.845C246.561 169.238 247.11 169.434 247.739 169.434H248.139ZM275.594 163.238L272.602 174.9H270.364L267.914 165.335L265.393 174.9H263.154L260.186 163.238H262.165L263.343 168.115L264.403 172.945L266.924 163.238H268.974L271.495 172.992L272.531 168.138L273.686 163.238H275.594ZM280.444 160.387H278.276V158.219H280.444V160.387ZM280.326 174.9H278.394V163.238H280.326V174.9ZM290.899 174.476C290.02 174.916 289.085 175.136 288.096 175.136C287.248 175.136 286.58 174.963 286.093 174.618C285.622 174.272 285.284 173.809 285.08 173.227C284.892 172.646 284.797 172.002 284.797 171.296V164.934H282.771V163.238H284.797V159.986H286.729V163.238H290.546V164.934H286.729V171.225C286.729 172.042 286.863 172.607 287.13 172.921C287.412 173.22 287.844 173.369 288.426 173.369C288.708 173.369 288.999 173.337 289.297 173.275C289.611 173.196 289.949 173.07 290.31 172.898L290.899 174.476ZM299.049 164.816C298.609 164.816 298.09 164.926 297.494 165.146C296.912 165.366 296.206 165.814 295.373 166.489V174.9H293.441V157.466H295.373V164.793C296.19 164.102 296.928 163.631 297.588 163.379C298.248 163.128 298.892 163.002 299.52 163.002C300.604 163.002 301.428 163.348 301.994 164.039C302.575 164.714 302.865 165.68 302.865 166.937V174.9H300.933V167.22C300.933 165.617 300.305 164.816 299.049 164.816ZM320.325 168.162H314.506V174.9H312.456V158.879H321.032V160.811H314.506V166.23H320.325V168.162ZM330.814 174.9V173.251C329.997 173.958 329.267 174.453 328.623 174.735C327.979 175.002 327.335 175.136 326.691 175.136C325.654 175.136 324.861 174.798 324.311 174.123C323.762 173.432 323.487 172.466 323.487 171.225V163.238H325.419V170.942C325.419 171.759 325.56 172.364 325.843 172.756C326.141 173.133 326.581 173.322 327.162 173.322C327.602 173.322 328.097 173.212 328.646 172.992C329.196 172.772 329.879 172.332 330.696 171.672V163.238H332.628V174.9H330.814ZM342.396 164.816C341.956 164.816 341.438 164.926 340.841 165.146C340.26 165.366 339.553 165.814 338.721 166.489V174.9H336.789V163.238H338.627V164.864C339.459 164.157 340.213 163.67 340.888 163.403C341.579 163.136 342.239 163.002 342.867 163.002C343.951 163.002 344.776 163.348 345.341 164.039C345.922 164.714 346.213 165.68 346.213 166.937V174.9H344.281V167.22C344.281 165.617 343.653 164.816 342.396 164.816Z" fill="#343030"/>
<path d="M299.622 398.378C299.68 398.163 299.718 397.962 299.762 397.751C300.139 395.861 299.949 394.012 299.182 392.224C295.704 384.075 278.436 382.576 251.947 376.169L251.937 376.164C272.029 338.331 280.514 307.108 265.976 282.491C265.966 282.486 265.966 282.486 265.966 282.486L265.957 282.481C265.953 282.466 265.953 282.466 265.953 282.466C260.062 272.51 250.403 263.636 236.206 255.846C187.366 228.03 155.972 253.562 125.474 305.451C106.141 286.248 95.8078 272.301 87.0446 273.605C73.8316 275.573 71.9926 302.292 91.2986 342.986L94.234 339.77L94.2476 339.79C57.7529 378.907 50.021 414.419 67.145 445.377C70.6659 451.745 75.2394 457.912 80.8214 463.888C96.7087 480.855 117.555 492.511 140.329 497.162C187.863 506.846 222.697 482.348 239.619 418.529L239.673 418.522L237.836 424.923C270.892 421.332 291.418 411.922 297.803 402.292L297.809 402.283C298.676 400.976 299.282 399.671 299.622 398.378ZM251.743 376.512L251.769 376.465L251.752 376.518L251.743 376.512Z" fill="#FE4C4C"/>
<g opacity="0.55">
<g opacity="0.55">
<path opacity="0.55" d="M299.182 392.224C295.871 384.44 276.425 381.884 251.937 376.164C251.137 377.706 251.256 379.194 250.42 380.778C276.058 386.982 295.671 389.506 299.894 396.985C300.07 395.365 299.84 393.766 299.182 392.224ZM240.76 424.049L240.712 424.047C240.654 424.237 240.612 424.424 240.56 424.605C240.57 424.61 240.594 424.611 240.608 424.607L240.76 424.049ZM92.4151 348.504C94.4625 346.213 96.464 343.872 98.3765 341.468C99.469 340.089 99.0084 338.039 97.4315 337.256L97.2756 337.181C97.2756 337.181 90.813 343.567 90.3389 344.105C63.5251 374.398 54.1277 402.477 60.2598 427.894C56.6005 403.625 66.808 377.037 92.4151 348.504Z" fill="white"/>
</g>
</g>
<g opacity="0.55">
<g opacity="0.55">
<path opacity="0.55" d="M272.66 301.703C268.734 286.024 257.688 272.579 237.288 261.383C189.205 234.002 158.037 258.313 127.98 308.595C127.001 310.235 125.849 311.766 124.567 313.175L112.952 325.9L123.824 308.248C106.235 290.478 96.4714 277.9 88.1411 279.137C79.9271 280.366 76.1107 291.148 79.0283 308.896C74.3165 287.858 78.0329 274.956 87.0634 273.616C95.8267 272.311 106.15 286.253 125.493 305.461C155.991 253.572 187.385 228.041 236.225 255.857C258.974 268.355 270.086 283.628 272.66 301.703Z" fill="white"/>
</g>
</g>
<g opacity="0.55">
<g opacity="0.55">
<g opacity="0.55">
<path opacity="0.55" d="M251.764 376.475L251.737 376.523L251.746 376.528L251.764 376.475Z" fill="white"/>
</g>
</g>
</g>
<path d="M97.0597 478.171C92.0439 486.898 80.68 482.509 77.9124 474.992C76.428 475.657 75.033 476.163 73.7076 476.522C70.8125 477.301 68.2704 477.338 66.1198 476.741C60.3215 475.13 57.3108 468.799 57.5204 459.251C57.2429 459.195 56.9748 459.144 56.7067 459.093C39.674 455.514 39.0807 442.649 67.5871 446.155L81.3101 461.047L97.0597 478.171Z" fill="#FFB127"/>
<g opacity="0.6">
<g opacity="0.6">
<path opacity="0.6" d="M97.0597 478.171C96.7713 478.665 97.0993 478.255 96.7713 478.665L68.5407 449.556C53.7161 447.731 46.762 450.331 45.8987 453.754C42.171 449.037 48.0417 443.754 67.5725 446.159L97.0597 478.171Z" fill="white"/>
</g>
</g>
<g opacity="0.3">
<g opacity="0.3">
<path opacity="0.3" d="M97.0597 478.171C92.044 486.898 80.6801 482.509 77.9125 474.992C76.428 475.657 75.0331 476.163 73.7077 476.522C70.8125 477.301 68.2705 477.338 66.1199 476.741C69.7694 476.359 73.2595 474.516 75.63 471.713C78.0772 468.818 79.3149 464.924 78.9827 461.142L81.2955 461.051L97.0597 478.171Z" fill="#4D110E"/>
</g>
</g>
<g opacity="0.6">
<g opacity="0.6">
<path opacity="0.6" d="M75.87 474.357C75.7933 474.45 74.9735 475.363 73.7077 476.522C62.9839 479.387 57.2393 472.331 57.5152 459.261C57.2377 459.204 56.9696 459.153 56.7015 459.102L58.7398 454.816C60.2486 455.19 61.2506 456.603 61.0924 458.146C60.7288 461.935 60.8221 468.797 65.5389 472.387C72.0908 477.336 75.6694 474.516 75.87 474.357Z" fill="white"/>
</g>
</g>
<path d="M157.177 514.975C144.836 522.943 134.955 520.434 133.098 505.85C125.235 507.423 115.565 500.05 120.364 491.202L132.985 493.674L159.745 498.91L163.067 499.556C181.259 522.348 169.349 528.418 157.177 514.975Z" fill="#FFB127"/>
<path d="M187.279 494.407C127.491 515.877 63.0411 461.226 59.4696 422.941C56.1621 385.842 83.6382 368.489 95.3116 362.842C101.551 359.817 107.482 356.151 112.848 351.772C126.941 340.272 130.894 329.555 146.293 297.329C154.773 277.5 175.044 266.71 190.231 270.32C200.368 272.725 207.996 282.824 207.11 301.759C206.951 305.093 210.66 307.192 213.477 305.381C230.848 294.23 243.152 296.055 250.374 304.778C259.962 316.344 260.675 337.902 248.836 354.654C229.445 384.648 222.375 393.623 219.957 411.651C219.04 418.529 219.027 425.493 219.718 432.393C221.01 445.289 220.614 477.784 187.279 494.407Z" fill="white"/>
<g opacity="0.3">
<g opacity="0.3">
<path opacity="0.3" d="M157.177 514.975C144.836 522.943 134.955 520.434 133.098 505.85C125.235 507.423 115.565 500.05 120.364 491.202L132.985 493.674C133.675 494.319 134.37 494.955 135.074 495.596C138.514 498.706 138.52 504.333 141.766 507.656C144.634 510.594 149.576 510.886 153.17 508.878C156.755 506.866 159.003 502.957 159.731 498.914C159.74 498.919 159.745 498.91 159.75 498.901L163.072 499.547C181.259 522.348 169.349 528.418 157.177 514.975Z" fill="#4D110E"/>
</g>
</g>
<g opacity="0.3">
<g opacity="0.3">
<path opacity="0.3" d="M203.998 323.329C219.366 345.579 210.536 360.64 197.834 344.675Z" fill="#4D110E"/>
</g>
</g>
<path d="M185.491 311.285C190.348 303.99 190.005 295.225 184.723 291.708C179.442 288.191 171.222 291.254 166.365 298.549C161.507 305.844 161.851 314.608 167.132 318.125C172.414 321.642 180.633 318.579 185.491 311.285Z" fill="#1E1B1B"/>
<path d="M182.646 306.39C184.278 303.94 184.306 301.092 182.709 300.029C181.112 298.966 178.495 300.09 176.864 302.539C175.232 304.989 175.204 307.837 176.801 308.9C178.398 309.964 181.015 308.84 182.646 306.39Z" fill="white"/>
<path d="M220.124 347.767C225.885 350.425 233.532 346.128 237.204 338.17C240.875 330.212 239.18 321.606 233.419 318.948C227.657 316.29 220.01 320.586 216.339 328.545C212.667 336.503 214.362 345.109 220.124 347.767Z" fill="#1E1B1B"/>
<path d="M222.914 334.693C224.656 335.496 227.067 333.981 228.3 331.309C229.533 328.636 229.12 325.818 227.378 325.015C225.636 324.211 223.225 325.726 221.992 328.399C220.759 331.071 221.172 333.889 222.914 334.693Z" fill="white"/>
<path d="M201.258 340.275C199.168 344.013 196.634 346.378 194.061 347.621C188 350.547 181.763 347.134 180.969 340.486C180.633 337.616 181.301 334.146 183.439 330.323" fill="#4D110E"/>
<path d="M202.146 339.992L192.789 336.589C192.613 336.528 192.442 336.457 192.277 336.377C191.813 336.167 191.377 335.887 190.972 335.573L183.215 329.419C182.13 328.553 182.182 326.889 183.301 326.081C190.983 320.588 196.89 319.132 200.627 321.444C204.195 323.661 205.749 329.326 204.933 338.213C204.811 339.579 203.437 340.467 202.146 339.992Z" fill="#FFB127"/>
<g opacity="0.6">
<g opacity="0.6">
<path opacity="0.6" d="M204 325.159C203.591 324.72 203.139 324.356 202.656 324.049C198.928 321.742 193.012 323.193 185.33 328.686C184.776 329.081 184.492 329.676 184.465 330.278L183.649 329.637C182.564 328.771 182.617 327.107 183.736 326.299C191.418 320.806 197.324 319.35 201.061 321.662C202.277 322.428 203.266 323.599 204 325.159Z" fill="white"/>
</g>
</g>
<path d="M194.061 347.621C188 350.547 181.763 347.134 180.969 340.486C181.006 340.42 181.027 340.382 181.027 340.382C187.164 339.377 191.5 341.789 194.061 347.621Z" fill="#FC3F6D"/>
<path d="M191.053 337.571C190.676 337.361 190.315 337.122 189.976 336.845L182.219 330.691C181.301 329.968 180.792 328.867 180.817 327.695C180.842 326.523 181.413 325.457 182.367 324.767C190.384 319.029 196.705 317.384 201.158 319.875C201.187 319.89 201.215 319.906 201.243 319.922C205.661 322.454 207.446 328.656 206.558 338.356C206.457 339.51 205.825 340.529 204.85 341.146C203.875 341.762 202.691 341.891 201.598 341.502L192.231 338.094C191.822 337.964 191.43 337.782 191.053 337.571ZM199.583 322.714C196.41 320.94 190.967 322.605 184.254 327.405C184.09 327.523 184.058 327.69 184.059 327.777C184.059 327.864 184.076 328.034 184.229 328.157L191.986 334.311C192.396 334.639 192.848 334.892 193.342 335.069L202.708 338.477C202.894 338.544 203.041 338.478 203.116 338.433C203.191 338.389 203.317 338.274 203.34 338.077C204.086 329.978 202.769 324.532 199.63 322.74C199.611 322.73 199.593 322.719 199.583 322.714Z" fill="#4D110E"/>
<path d="M184.785 348.824C181.904 347.213 180.009 344.238 179.58 340.649C179.173 337.244 180.088 333.442 182.22 329.629C182.599 328.951 183.45 328.71 184.128 329.089C184.806 329.468 185.047 330.32 184.668 330.998C182.83 334.284 182.029 337.507 182.373 340.319C182.697 343.01 184.073 345.213 186.164 346.381C186.183 346.392 186.201 346.403 186.22 346.413C188.349 347.579 190.992 347.561 193.467 346.362C195.971 345.154 198.253 342.821 200.053 339.601C200.432 338.923 201.284 338.682 201.962 339.061C202.64 339.44 202.88 340.292 202.501 340.969C200.416 344.698 197.711 347.437 194.688 348.886C191.388 350.477 187.805 350.476 184.885 348.868C184.833 348.851 184.814 348.84 184.785 348.824Z" fill="#4D110E"/>
<g opacity="0.3">
<g opacity="0.3">
<path opacity="0.3" d="M202.146 339.992L192.789 336.589C192.613 336.528 192.442 336.457 192.277 336.377L200.627 321.444C204.195 323.661 205.749 329.326 204.932 338.213C204.811 339.579 203.437 340.467 202.146 339.992Z" fill="#4D110E"/>
</g>
</g>
<path d="M59.5101 454.345C59.4294 454.732 59.36 455.188 59.3159 455.62C59.2665 456.062 59.2223 456.495 59.197 456.938C59.137 457.819 59.1104 458.707 59.1133 459.586C59.1097 460.498 58.3753 461.237 57.4574 461.243C56.5447 461.239 55.806 460.505 55.8095 459.592C55.8101 459.37 55.8537 459.16 55.9401 458.961L55.9559 458.933C56.3198 458.061 56.7119 457.205 57.1323 456.365C57.3452 455.94 57.5621 455.53 57.7938 455.115C58.0254 454.701 58.256 454.311 58.5558 453.885C58.7314 453.637 59.0627 453.575 59.3158 453.742C59.503 453.871 59.58 454.087 59.5364 454.298L59.5101 454.345Z" fill="#4D110E"/>
<path d="M77.3005 473.5C77.9894 473.329 78.588 473.231 79.2294 473.145C79.8657 473.068 80.4966 473.001 81.1348 472.987C82.4111 472.959 83.7353 473.044 84.9788 473.517C85.2541 473.622 85.3989 473.937 85.2891 474.222C85.2015 474.445 84.978 474.58 84.7517 474.564L84.7129 474.567C83.6391 474.498 82.5549 474.757 81.4999 475.119C80.9797 475.298 80.4625 475.516 79.9495 475.748C79.4511 475.976 78.917 476.246 78.5087 476.512C77.7331 476.993 76.7247 476.763 76.2438 475.987C75.7628 475.211 75.993 474.203 76.7687 473.722C76.9177 473.632 77.0709 473.557 77.2365 473.526L77.3005 473.5Z" fill="#4D110E"/>
<path d="M161.225 511.294C161.01 511.767 160.799 512.168 160.576 512.587C160.345 513.002 160.104 513.411 159.858 513.805C159.363 514.603 158.839 515.385 158.286 516.152L158.276 516.171C157.74 516.909 156.717 517.079 155.964 516.547C155.226 516.01 155.056 514.988 155.588 514.235C155.718 514.048 155.884 513.906 156.067 513.799C156.818 513.341 157.56 512.853 158.279 512.341C158.643 512.087 158.989 511.823 159.34 511.55C159.676 511.28 160.027 510.983 160.325 510.716L160.37 510.68C160.591 510.482 160.934 510.488 161.141 510.715C161.279 510.867 161.316 511.11 161.225 511.294Z" fill="#4D110E"/>
<path d="M131.502 506.119C131.505 505.626 131.45 505.039 131.398 504.491C131.337 503.938 131.252 503.383 131.122 502.841C130.878 501.753 130.531 500.694 129.91 499.815L129.892 499.78C129.72 499.536 129.774 499.195 130.019 499.023C130.218 498.887 130.474 498.894 130.656 499.033C131.715 499.836 132.49 500.924 133.12 502.03C133.443 502.581 133.725 503.16 133.983 503.737C134.246 504.328 134.476 504.889 134.691 505.566L134.713 505.615C134.982 506.482 134.504 507.402 133.647 507.676C132.789 507.951 131.86 507.468 131.585 506.61C131.52 506.462 131.494 506.287 131.502 506.119Z" fill="#4D110E"/>
<path d="M229.446 257.924C229.875 229.527 256.763 230.954 245.578 255.488C259.506 247.134 269.513 265.843 244.671 266.438" fill="#FE4C4C"/>
<g opacity="0.55">
<g opacity="0.55">
<path opacity="0.55" d="M248.285 244.147C244.849 236.565 232.878 241.663 229.911 257.357L229.451 257.915C229.797 234.86 247.592 231.462 248.285 244.147Z" fill="white"/>
</g>
</g>
<g opacity="0.55">
<g opacity="0.55">
<path opacity="0.55" d="M259.751 259.804C258.084 257.524 254.351 256.154 249.833 257.582C247.779 258.226 245.755 256.365 246.324 254.286L246.336 254.243C253.364 251.598 260.659 255.639 259.751 259.804Z" fill="white"/>
</g>
</g>
<g opacity="0.3">
<g opacity="0.3">
<path opacity="0.3" d="M205.002 424.98C206.949 398.111 217.559 389.879 243.062 347.409C269.653 303.124 266.075 283.066 265.966 282.486L265.976 282.491C280.52 307.099 272.035 338.321 251.937 376.164L251.947 376.169C241.988 394.356 241.92 402.5 241.92 402.5C242.783 412.561 259.231 409.671 259.231 409.671C284.452 409.127 297.922 399.207 299.756 397.761C299.907 397.647 299.977 397.587 299.977 397.587C299.977 397.587 299.863 397.857 299.616 398.387C299.262 399.153 298.66 400.473 297.813 402.298C297.808 402.307 297.808 402.307 297.808 402.307C296.525 404.247 294.673 406.166 292.264 408.044C283.111 415.15 265.915 421.479 241.394 424.528C240.224 424.677 239.034 424.815 237.835 424.948L239.672 418.546L239.618 418.554C230.962 451.188 217.622 473.541 200.303 486.301C184.599 496.084 165.899 498.581 144.656 494.242C121.877 489.601 101.03 477.944 85.1484 460.968C83.5239 459.232 81.9821 457.48 80.5379 455.708C147.082 501.618 203.766 459.242 204.724 429.942C204.737 429.343 204.765 428.741 204.787 428.172" fill="#4D110E"/>
</g>
</g>
<path d="M205.94 228.33C203.054 226.393 196.964 235.389 194.28 240.13L196.78 252.093C202.657 253.047 214.569 253.802 215.2 249.188C215.832 244.574 208.939 242.641 205.414 242.251C206.792 238.418 208.826 230.268 205.94 228.33Z" fill="#FF7E7E"/>
<path d="M174.939 239.002C176.021 235.698 186.358 239.041 191.391 241.125L196.784 252.092C192.74 256.461 183.816 264.388 180.479 261.14C177.141 257.892 181.383 252.127 183.922 249.65C180.476 247.477 173.856 242.306 174.939 239.002Z" fill="#FF7E7E"/>
<path d="M204.333 232.354C202.248 230.945 197.869 237.459 195.94 240.892L197.761 249.569C202.001 250.269 210.594 250.833 211.042 247.489C211.491 244.145 206.517 242.733 203.974 242.446C204.962 239.669 206.417 233.763 204.333 232.354Z" fill="#E05E5E"/>
<path d="M204.333 232.354C202.248 230.945 197.869 237.459 195.94 240.892L197.761 249.569C202.001 250.269 210.594 250.833 211.042 247.489C211.491 244.145 206.517 242.733 203.974 242.446C204.962 239.669 206.417 233.763 204.333 232.354Z" fill="#E05E5E"/>
<path d="M178.678 241.185C179.454 238.791 186.914 241.23 190.547 242.748L194.454 250.707C191.543 253.869 185.118 259.603 182.706 257.243C180.294 254.884 183.345 250.71 185.172 248.918C182.684 247.338 177.902 243.579 178.678 241.185Z" fill="#E05E5E"/>
<path d="M178.678 241.185C179.454 238.791 186.914 241.23 190.547 242.748L194.454 250.707C191.543 253.869 185.118 259.603 182.706 257.243C180.294 254.884 183.345 250.71 185.172 248.918C182.684 247.338 177.902 243.579 178.678 241.185Z" fill="#E05E5E"/>
<path d="M197.967 244.796C199.174 248.301 198.671 251.652 196.845 252.281C195.018 252.91 192.559 250.578 191.353 247.073C190.146 243.567 190.649 240.216 192.475 239.587C194.302 238.958 196.761 241.29 197.967 244.796Z" fill="#FE4C4C"/>
<path d="M493.959 262.938C493.819 262.766 493.677 262.618 493.531 262.46C492.212 261.055 490.597 260.135 488.696 259.72C480.043 257.814 468.788 270.996 448.181 288.83L448.171 288.835C429.058 250.497 408.58 225.448 380.097 222.974C380.088 222.978 380.088 222.978 380.088 222.978L380.078 222.983C380.063 222.978 380.063 222.978 380.063 222.978C368.538 221.986 355.703 224.69 341.114 231.716C290.094 255.298 292.627 295.684 317.132 350.658C290.269 355.232 272.914 355.536 268.883 363.425C262.806 375.322 283.482 392.346 327.818 400.283L326.906 396.025L326.93 396.026C337.557 448.458 361.963 475.387 397.108 479.442C404.337 480.278 412.013 480.139 420.12 479.07C443.161 476 464.761 465.809 481.781 449.979C517.285 416.922 517.591 374.338 475.49 323.479L475.515 323.432L479.657 328.646C495.944 299.658 500.214 277.485 496.089 266.693L496.084 266.683C495.524 265.217 494.814 263.966 493.959 262.938ZM448.341 289.196L448.318 289.147L448.351 289.191L448.341 289.196Z" fill="#13623C"/>
<g opacity="0.55">
<g opacity="0.55">
<path opacity="0.55" d="M488.696 259.72C480.437 257.89 467.056 272.231 448.171 288.835C448.961 290.382 450.241 291.15 451.044 292.751C470.992 275.491 484.444 260.998 492.984 261.907C491.769 260.822 490.333 260.08 488.696 259.72ZM480.645 325.759L480.615 325.797C480.737 325.954 480.864 326.097 480.981 326.244C480.991 326.24 481.006 326.221 481.011 326.206L480.645 325.759ZM332.958 402.581C332.283 399.584 331.54 396.594 330.696 393.641C330.208 391.95 328.273 391.134 326.719 391.962L326.568 392.046C326.568 392.046 328.008 401.016 328.171 401.714C337.241 441.14 354.631 465.105 378.879 474.885C357.002 463.76 341.296 440.002 332.958 402.581Z" fill="white"/>
</g>
</g>
<g opacity="0.55">
<g opacity="0.55">
<path opacity="0.55" d="M399.617 228.699C384.575 222.782 367.214 223.959 346.248 234.053C296.023 257.272 297.694 296.765 321.147 350.445C321.913 352.195 322.489 354.023 322.891 355.885L326.497 372.732L318.449 353.627C293.767 357.614 277.856 358.25 274.022 365.748C270.249 373.147 276.805 382.518 292.945 390.458C273.085 382.066 264.745 371.544 268.903 363.416C272.934 355.527 290.279 355.228 317.152 350.648C292.647 295.675 290.113 255.289 341.133 231.707C364.524 220.456 383.411 220.289 399.617 228.699Z" fill="white"/>
</g>
</g>
<g opacity="0.55">
<g opacity="0.55">
<g opacity="0.55">
<path opacity="0.55" d="M448.323 289.156L448.346 289.206L448.356 289.202L448.323 289.156Z" fill="white"/>
</g>
</g>
</g>
<path d="M441.181 474.155C445.368 483.309 435.192 490.006 427.466 487.89C427.145 489.485 426.746 490.914 426.268 492.201C425.219 495.01 423.772 497.1 422.036 498.503C417.356 502.286 410.454 501.057 402.806 495.338C402.599 495.531 402.402 495.719 402.204 495.908C389.393 507.689 378.579 500.696 397.998 479.535L418.092 477.021L441.181 474.155Z" fill="#FFB127"/>
<g opacity="0.6">
<g opacity="0.6">
<path opacity="0.6" d="M441.181 474.155C441.415 474.677 441.272 474.172 441.415 474.677L401.32 480.735C391.22 491.739 389.295 498.909 391.579 501.601C385.574 501.893 384.686 494.046 397.993 479.549L441.181 474.155Z" fill="white"/>
</g>
</g>
<g opacity="0.3">
<g opacity="0.3">
<path opacity="0.3" d="M441.181 474.155C445.368 483.309 435.192 490.006 427.466 487.89C427.145 489.485 426.746 490.914 426.268 492.201C425.219 495.009 423.772 497.1 422.037 498.503C423.847 495.311 424.375 491.4 423.472 487.842C422.538 484.168 420.088 480.898 416.817 478.97L418.087 477.035L441.181 474.155Z" fill="#4D110E"/>
</g>
</g>
<g opacity="0.6">
<g opacity="0.6">
<path opacity="0.6" d="M425.762 489.183C425.794 489.299 426.061 490.497 426.268 492.201C422.368 502.593 413.287 503.168 402.811 495.347C402.604 495.54 402.406 495.729 402.209 495.918L399.905 491.768C401.087 490.757 402.819 490.763 403.983 491.789C406.855 494.286 412.494 498.198 418.155 496.446C425.991 493.99 425.776 489.439 425.762 489.183Z" fill="white"/>
</g>
</g>
<path d="M506.068 446.619C505.381 461.293 497.597 467.876 484.649 460.912C481.36 468.225 469.74 471.81 465.328 462.763L474.674 453.928L494.487 435.193L496.943 432.865C526.063 431.305 524.082 444.526 506.068 446.619Z" fill="#FFB127"/>
<path d="M506.823 410.169C489.551 471.302 407.621 491.992 374.389 472.65C342.275 453.782 344.121 421.338 346.309 408.556C347.474 401.721 347.936 394.763 347.491 387.852C346.322 369.7 339.898 360.254 322.621 328.995C311.412 310.57 314.412 287.804 326.175 277.542C334.023 270.691 346.674 270.352 361.569 282.076C364.19 284.143 368.053 282.344 368.216 278.999C369.237 258.383 377.872 249.43 389.168 248.622C404.152 247.54 422.111 259.488 428.864 278.858C442.004 312.069 445.199 323.039 458.466 335.483C463.531 340.226 469.19 344.284 475.206 347.731C486.453 354.175 512.667 373.381 506.823 410.169Z" fill="white"/>
<g opacity="0.3">
<g opacity="0.3">
<path opacity="0.3" d="M506.068 446.619C505.381 461.293 497.596 467.876 484.649 460.912C481.36 468.225 469.74 471.81 465.328 462.763L474.674 453.928C475.6 453.742 476.522 453.545 477.453 453.345C481.983 452.353 486.565 455.618 491.156 454.907C495.214 454.281 498.323 450.429 498.778 446.337C499.224 442.25 497.348 438.149 494.482 435.208C494.491 435.203 494.487 435.193 494.482 435.183L496.938 432.856C526.063 431.305 524.082 444.526 506.068 446.619Z" fill="#4D110E"/>
</g>
</g>
<g opacity="0.3">
<g opacity="0.3">
<path opacity="0.3" d="M377.314 297.144C404.352 297.568 411.478 313.506 391.104 314.566Z" fill="#4D110E"/>
</g>
</g>
<path d="M356.757 305.206C353.643 297.013 346.311 292.2 340.38 294.454C334.448 296.708 332.164 305.177 335.278 313.37C338.392 321.562 345.724 326.376 351.656 324.121C357.587 321.867 359.871 313.398 356.757 305.206Z" fill="#131313"/>
<path d="M351.121 304.676C350.075 301.925 347.774 300.247 345.98 300.929C344.187 301.611 343.581 304.393 344.627 307.145C345.672 309.896 347.974 311.574 349.767 310.892C351.56 310.211 352.167 307.428 351.121 304.676Z" fill="white"/>
<path d="M406.573 298.222C412.085 295.078 413.032 286.358 408.689 278.746C404.346 271.133 396.358 267.511 390.846 270.655C385.335 273.799 384.387 282.519 388.73 290.132C393.073 297.744 401.062 301.367 406.573 298.222Z" fill="#131313"/>
<path d="M397.555 288.354C399.221 287.403 399.39 284.56 397.931 282.004C396.473 279.447 393.939 278.146 392.273 279.096C390.607 280.047 390.438 282.89 391.897 285.447C393.355 288.003 395.888 289.305 397.555 288.354Z" fill="white"/>
<path d="M389.513 309.221C391.34 313.094 391.792 316.531 391.308 319.348C390.168 325.981 383.766 329.073 377.894 325.856C375.363 324.461 372.927 321.901 371.058 317.94" fill="#4D110E"/>
<path d="M389.798 308.335L381.591 313.972C381.439 314.08 381.283 314.177 381.121 314.265C380.681 314.521 380.199 314.712 379.708 314.861L370.192 317.597C368.857 317.976 367.533 316.967 367.526 315.586C367.52 306.142 369.767 300.49 373.821 298.792C377.699 297.177 383.212 299.204 389.97 305.033C391.011 305.926 390.935 307.56 389.798 308.335Z" fill="#FFB127"/>
<g opacity="0.6">
<g opacity="0.6">
<path opacity="0.6" d="M378.805 298.206C378.21 298.284 377.651 298.44 377.12 298.655C373.076 300.348 370.819 306.005 370.825 315.449C370.824 316.13 371.144 316.706 371.618 317.079L370.622 317.37C369.287 317.75 367.963 316.74 367.956 315.36C367.95 305.916 370.197 300.263 374.251 298.565C375.581 298.021 377.108 297.897 378.805 298.206Z" fill="white"/>
</g>
</g>
<path d="M391.308 319.348C390.168 325.981 383.766 329.073 377.894 325.855C377.862 325.787 377.843 325.748 377.843 325.748C380.591 320.17 385.074 318.043 391.308 319.348Z" fill="#FC3F6D"/>
<path d="M381.382 315.956C380.992 316.14 380.588 316.294 380.165 316.41L370.649 319.146C369.527 319.473 368.335 319.248 367.396 318.546C366.456 317.844 365.921 316.761 365.915 315.583C365.903 305.724 368.238 299.625 372.853 297.447C372.882 297.434 372.911 297.42 372.941 297.406C377.569 295.282 383.653 297.433 391.031 303.793C391.911 304.547 392.374 305.653 392.309 306.804C392.244 307.956 391.66 308.995 390.709 309.659L382.492 315.3C382.149 315.558 381.772 315.771 381.382 315.956ZM374.248 300.379C370.96 301.931 369.153 307.328 369.157 315.58C369.158 315.783 369.275 315.906 369.347 315.956C369.418 316.006 369.566 316.091 369.755 316.038L379.271 313.301C379.776 313.159 380.244 312.938 380.676 312.639L388.893 306.997C389.054 306.885 389.087 306.726 389.094 306.639C389.101 306.553 389.08 306.383 388.934 306.25C382.777 300.936 377.579 298.844 374.297 300.356C374.277 300.366 374.258 300.375 374.248 300.379Z" fill="#4D110E"/>
<path d="M386.898 327.595C383.912 329.004 380.389 328.817 377.219 327.08C374.212 325.434 371.649 322.48 369.785 318.528C369.454 317.826 369.753 316.993 370.455 316.662C371.158 316.33 371.99 316.629 372.322 317.332C373.928 320.737 376.086 323.261 378.574 324.616C380.952 325.916 383.545 326.076 385.711 325.054C385.73 325.045 385.75 325.036 385.769 325.027C387.955 323.971 389.476 321.81 389.939 319.099C390.411 316.359 389.838 313.147 388.264 309.81C387.932 309.108 388.231 308.275 388.934 307.944C389.636 307.612 390.469 307.911 390.8 308.613C392.623 312.477 393.28 316.271 392.703 319.573C392.08 323.182 389.996 326.098 386.991 327.54C386.946 327.572 386.927 327.582 386.898 327.595Z" fill="#4D110E"/>
<g opacity="0.3">
<g opacity="0.3">
<path opacity="0.3" d="M389.798 308.335L381.591 313.972C381.439 314.08 381.283 314.177 381.121 314.265L373.821 298.792C377.699 297.177 383.212 299.204 389.97 305.033C391.011 305.925 390.935 307.56 389.798 308.335Z" fill="#4D110E"/>
</g>
</g>
<path d="M399.969 490.867C400.238 491.158 400.568 491.479 400.894 491.766C401.226 492.064 401.552 492.351 401.898 492.629C402.58 493.19 403.287 493.727 404.004 494.236C404.744 494.769 404.919 495.796 404.39 496.546C403.857 497.287 402.83 497.462 402.089 496.928C401.909 496.799 401.763 496.641 401.651 496.455L401.637 496.426C401.139 495.623 400.671 494.806 400.231 493.976C400.009 493.556 399.801 493.141 399.599 492.712C399.396 492.282 399.213 491.868 399.041 491.377C398.941 491.09 399.083 490.784 399.366 490.675C399.58 490.598 399.8 490.661 399.946 490.818L399.969 490.867Z" fill="#4D110E"/>
<path d="M425.897 487.521C426.158 486.861 426.426 486.317 426.729 485.745C427.036 485.182 427.348 484.63 427.707 484.102C428.426 483.047 429.265 482.019 430.373 481.282C430.618 481.119 430.959 481.185 431.127 481.439C431.257 481.64 431.237 481.9 431.093 482.076L431.073 482.109C430.393 482.943 429.973 483.975 429.655 485.044C429.498 485.572 429.374 486.119 429.265 486.671C429.161 487.209 429.07 487.801 429.05 488.288C428.99 489.199 428.217 489.885 427.306 489.826C426.396 489.767 425.709 488.993 425.768 488.083C425.782 487.909 425.81 487.741 425.881 487.588L425.897 487.521Z" fill="#4D110E"/>
<path d="M505.425 441.185C505.685 441.635 505.888 442.04 506.1 442.465C506.303 442.894 506.496 443.328 506.674 443.757C507.036 444.624 507.368 445.505 507.671 446.4L507.68 446.42C507.969 447.285 507.513 448.216 506.643 448.519C505.777 448.808 504.846 448.353 504.543 447.482C504.466 447.268 504.447 447.05 504.466 446.838C504.529 445.962 504.564 445.074 504.565 444.191C504.57 443.748 504.556 443.313 504.537 442.869C504.513 442.438 504.476 441.979 504.432 441.582L504.428 441.524C504.396 441.229 504.6 440.954 504.905 440.918C505.108 440.893 505.328 441.005 505.425 441.185Z" fill="#4D110E"/>
<path d="M483.94 462.367C483.541 462.078 483.032 461.782 482.555 461.506C482.069 461.234 481.569 460.981 481.052 460.772C480.025 460.338 478.961 460.005 477.885 460L477.846 459.994C477.547 459.992 477.302 459.75 477.304 459.451C477.309 459.209 477.464 459.005 477.682 458.938C478.951 458.542 480.287 458.544 481.554 458.674C482.189 458.732 482.824 458.838 483.443 458.963C484.078 459.094 484.668 459.233 485.343 459.451L485.396 459.462C486.258 459.747 486.729 460.669 486.454 461.527C486.179 462.385 485.246 462.86 484.389 462.585C484.23 462.552 484.073 462.472 483.94 462.367Z" fill="#4D110E"/>
<path d="M338.876 238.426C316.015 221.574 332.802 200.521 346.268 223.881C347.564 207.691 368.604 210.42 354.652 230.983" fill="#268758"/>
<g opacity="0.55">
<g opacity="0.55">
<path opacity="0.55" d="M338.612 215.088C330.445 213.478 327.636 226.182 338.685 237.717L338.871 238.416C320.31 224.736 327.886 208.28 338.612 215.088Z" fill="white"/>
</g>
</g>
<g opacity="0.55">
<g opacity="0.55">
<path opacity="0.55" d="M358.017 214.855C355.193 214.887 351.909 217.128 350.445 221.636C349.776 223.681 347.085 224.247 345.723 222.575L345.695 222.541C347.627 215.284 355.155 211.696 358.017 214.855Z" fill="#13623C"/>
</g>
</g>
<g opacity="0.3">
<g opacity="0.3">
<path opacity="0.3" d="M460.622 355.4C439.888 338.201 439.354 324.783 419.612 279.347C399.026 231.971 380.622 223.227 380.088 222.978L380.097 222.974C408.575 225.438 429.053 250.488 448.171 288.835L448.181 288.83C457.193 307.504 463.782 312.292 463.782 312.292C472.472 317.436 479.678 302.371 479.678 302.371C493.892 281.53 493.647 264.803 493.536 262.47C493.53 262.281 493.523 262.19 493.523 262.19C493.523 262.19 493.676 262.439 493.964 262.948C494.382 263.681 495.106 264.938 496.098 266.688C496.103 266.698 496.103 266.698 496.103 266.698C496.937 268.869 497.422 271.491 497.55 274.544C498.015 286.121 493.172 303.793 481.403 325.52C480.844 326.56 480.265 327.608 479.676 328.661L475.534 323.446L475.509 323.494C497.036 349.504 507.475 373.349 507.795 394.86C506.63 413.325 497.795 429.994 481.919 444.76C464.904 460.601 443.304 470.792 420.259 473.852C417.901 474.164 415.58 474.401 413.299 474.547C489.332 447.072 487.786 376.317 464.498 358.509C464.019 358.151 463.545 357.778 463.095 357.43" fill="#4D110E"/>
</g>
</g>
</g>
<defs>
<clipPath id="clip0_943_7740">
<rect width="512" height="512" fill="white" transform="translate(0.736511)"/>
</clipPath>
</defs>
</svg>
